<?xml version="1.0" encoding="utf-8" ?>
<svg baseProfile="full" height="301" version="1.1" width="327" xmlns="http://www.w3.org/2000/svg" xmlns:ev="http://www.w3.org/2001/xml-events" xmlns:xlink="http://www.w3.org/1999/xlink"><defs /><polygon fill="#f49445" points="292,153 291,154 290,154 289,155 288,156 287,156 286,157 285,158 284,159 283,159 282,160 281,160 280,161 279,162 278,162 277,163 276,163 275,164 274,164 273,165 272,165 271,166 270,166 269,166 268,167 267,167 266,168 265,168 264,168 263,169 262,169 261,169 260,170 259,170 259,171 260,172 261,172 262,173 263,174 264,174 265,175 266,176 267,177 268,177 269,178 270,179 271,180 272,181 273,182 274,183 275,184 276,185 277,186 278,187 279,188 280,189 281,190 281,191 282,192 283,193 284,194 284,195 285,196 285,197 286,198 286,199 287,200 287,201 288,202 288,203 288,204 289,205 289,206 289,207 289,208 289,209 290,210 290,211 290,212 290,213 290,214 290,215 290,216 290,217 290,218 289,219 289,220 289,221 289,222 289,223 289,224 288,225 288,226 288,227 288,228 287,229 287,230 287,231 286,232 286,233 285,234 285,235 285,236 284,237 284,238 283,239 282,240 282,241 281,242 281,243 280,244 279,245 278,246 277,247 276,248 276,249 275,250 274,251 273,252 272,253 271,254 270,254 269,255 268,256 267,257 266,257 265,258 264,259 263,259 262,260 261,261 260,261 259,262 258,262 257,262 256,263 255,263 254,264 253,264 252,264 251,265 250,265 249,265 248,265 247,266 246,266 245,266 244,266 243,266 242,266 241,267 240,267 239,267 238,267 237,267 236,267 235,267 234,267 233,267 232,267 231,266 230,266 229,266 228,266 227,266 226,266 225,266 224,265 223,265 222,265 221,265 220,264 219,264 218,264 217,263 216,263 215,263 214,262 213,262 212,261 211,261 210,260 209,260 208,259 207,259 206,258 205,258 204,257 203,256 202,256 201,255 200,254 199,253 198,252 197,251 196,250 195,249 194,248 193,247 192,246 191,245 191,244 190,243 189,242 189,241 188,240 188,239 187,238 187,237 186,236 186,235 185,234 185,233 184,232 184,231 184,230 184,229 183,228 183,227 183,226 183,225 182,224 182,223 182,222 183,221 184,222 185,222 186,223 187,224 188,225 189,226 190,227 191,228 192,229 193,230 194,231 195,231 196,232 197,233 198,233 199,233 200,234 201,234 202,234 203,234 204,234 205,234 206,234 207,234 208,234 209,234 210,234 211,233 212,233 213,233 214,232 215,231 216,231 217,230 218,229 219,228 219,227 220,226 220,225 220,224 221,223 221,222 221,221 221,220 221,219 221,218 221,217 221,216 220,215 220,214 219,213 219,212 218,211 217,210 216,209 215,208 214,207 213,206 212,205 211,204 210,203 209,202 208,201 207,200 206,199 205,199 204,198 203,197 202,196 201,195 200,194 199,193 198,192 197,191 196,190 195,189 194,188 193,188 192,187 191,186 190,185 189,184 188,183 187,182 186,181 185,180 184,179 183,178 182,177 181,176 180,176 179,175 178,174 177,173 176,172 175,171 174,170 173,169 172,169 171,168 170,168 169,168 168,167 167,167 166,167 165,167 164,167 163,167 162,167 161,167 160,167 159,167 158,168 157,168 156,168 155,169 154,169 153,170 152,171 151,172 150,173 149,173 148,174 147,175 146,176 145,177 144,178 143,179 142,180 141,181 140,182 139,183 138,184 137,184 136,185 135,186 134,187 133,188 132,189 131,190 130,191 129,192 128,193 127,194 126,195 125,196 124,196 123,197 122,198 121,199 120,200 119,201 118,202 117,203 116,204 115,205 114,206 113,207 112,207 111,208 110,209 109,210 109,211 108,212 107,213 107,214 106,215 106,216 106,217 106,218 106,219 106,220 106,221 106,222 106,223 106,224 107,225 107,226 108,227 108,228 109,229 110,230 111,231 112,232 113,232 114,233 115,233 116,234 117,234 118,234 119,234 120,234 121,234 122,234 123,234 124,234 125,234 126,234 127,234 128,233 129,233 130,232 131,232 132,231 133,230 134,229 135,229 136,228 137,227 138,226 139,225 140,224 141,223 142,222 143,221 144,220 145,221 145,222 145,223 145,224 145,225 146,226 146,227 146,228 146,229 146,230 146,231 146,232 147,233 147,234 147,235 147,236 148,237 148,238 148,239 148,240 149,241 149,242 149,243 150,244 150,245 151,246 151,247 151,248 152,249 152,250 153,251 153,252 154,253 154,254 155,255 155,256 156,257 157,258 157,259 158,260 158,261 159,262 160,263 160,264 161,265 162,266 163,267 164,268 164,269 165,270 166,271 167,272 168,273 169,274 170,275 171,276 172,277 173,278 174,278 175,279 176,280 177,281 178,282 179,282 180,283 181,284 182,284 183,285 184,286 185,286 186,287 187,288 188,288 189,289 190,289 191,290 192,290 193,291 194,291 195,292 196,292 197,293 198,293 199,293 200,294 201,294 202,295 203,295 204,295 205,296 206,296 207,296 208,297 209,297 210,297 211,297 212,298 213,298 214,298 215,298 216,299 217,299 218,299 219,299 220,299 221,299 222,299 223,300 224,300 225,300 226,300 227,300 228,300 229,300 230,300 231,300 232,300 233,300 234,300 235,300 236,300 237,300 238,300 239,300 240,300 241,300 242,300 243,300 244,300 245,300 246,300 247,300 248,300 249,300 250,299 251,299 252,299 253,299 254,299 255,299 256,298 257,298 258,298 259,298 260,298 261,297 262,297 263,297 264,296 265,296 266,296 267,295 268,295 269,295 270,294 271,294 272,294 273,293 274,293 275,292 276,292 277,292 278,291 279,291 280,290 281,290 282,289 283,288 284,288 285,287 286,287 287,286 288,286 289,285 290,284 291,283 292,283 293,282 294,281 295,281 296,280 297,279 298,278 299,277 300,276 301,275 302,274 303,273 304,272 305,271 306,270 307,269 308,268 309,267 309,266 310,265 311,264 312,263 312,262 313,261 314,260 314,259 315,258 316,257 316,256 317,255 317,254 318,253 318,252 319,251 319,250 320,249 320,248 321,247 321,246 321,245 322,244 322,243 323,242 323,241 323,240 323,239 324,238 324,237 324,236 324,235 325,234 325,233 325,232 325,231 325,230 325,229 326,228 326,227 326,226 326,225 326,224 326,223 326,222 326,221 326,220 326,219 326,218 326,217 326,216 326,215 326,214 326,213 326,212 326,211 326,210 326,209 326,208 326,207 326,206 326,205 325,204 325,203 325,202 325,201 324,200 324,199 324,198 324,197 324,196 323,195 323,194 323,193 322,192 322,191 321,190 321,189 321,188 320,187 320,186 319,185 319,184 318,183 318,182 317,181 317,180 316,179 315,178 315,177 314,176 313,175 313,174 312,173 311,172 310,171 310,170 309,169 308,168 307,167 306,166 305,165 304,164 303,163 302,162 302,161 301,160 300,159 299,158 298,157 297,157 296,156 295,155 294,154 293,153" stroke="#f49445" stroke-width="1" /><polygon fill="#99b857" points="90,97 89,98 88,98 87,98 86,99 85,99 84,100 83,101 82,102 81,103 80,104 80,105 79,106 79,107 79,108 79,109 78,110 78,111 78,112 78,113 79,114 79,115 79,116 79,117 80,118 80,119 81,120 82,121 83,122 84,123 85,124 86,125 87,126 88,127 89,128 90,129 91,130 92,131 93,131 94,132 93,133 92,133 91,133 90,133 89,133 88,134 87,134 86,134 85,134 84,134 83,134 82,134 81,134 80,135 79,135 78,135 77,135 76,135 75,136 74,136 73,136 72,136 71,137 70,137 69,137 68,137 67,138 66,138 65,138 64,139 63,139 62,140 61,140 60,140 59,141 58,141 57,142 56,142 55,143 54,143 53,144 52,144 51,145 50,145 49,146 48,146 47,147 46,148 45,148 44,149 43,150 42,150 41,151 40,152 39,152 38,153 37,154 36,155 35,156 34,157 33,157 32,158 31,159 30,160 29,161 28,162 27,163 27,164 26,165 25,166 24,167 23,168 23,169 22,170 21,171 21,172 20,173 19,174 19,175 18,176 17,177 17,178 16,179 16,180 15,181 15,182 14,183 14,184 13,185 13,186 13,187 12,188 12,189 11,190 11,191 11,192 10,193 10,194 10,195 9,196 9,197 9,198 9,199 8,200 8,201 8,202 8,203 8,204 8,205 7,206 7,207 7,208 7,209 7,210 7,211 7,212 7,213 7,214 7,215 7,216 7,217 7,218 7,219 7,220 7,221 7,222 7,223 7,224 7,225 7,226 7,227 7,228 8,229 8,230 8,231 8,232 8,233 8,234 9,235 9,236 9,237 10,238 10,239 10,240 10,241 11,242 11,243 11,244 12,245 12,246 13,247 13,248 13,249 14,250 14,251 15,252 15,253 16,254 16,255 17,256 18,257 18,258 19,259 19,260 20,261 21,262 21,263 22,264 23,265 24,266 25,267 25,268 26,269 27,270 28,271 29,272 30,273 31,274 32,275 33,276 34,277 35,278 36,279 37,280 38,280 39,281 40,282 41,283 42,283 43,284 44,285 45,285 46,286 47,287 48,287 49,288 50,288 51,289 52,289 53,290 54,291 55,291 56,291 57,292 58,292 59,293 60,293 61,294 62,294 63,294 64,295 65,295 66,295 67,296 68,296 69,296 70,297 71,297 72,297 73,298 74,298 75,298 76,298 77,298 78,299 79,299 80,299 81,299 82,299 83,299 84,300 85,300 86,300 87,300 88,300 89,300 90,300 91,300 92,300 93,300 94,300 95,300 96,300 97,300 98,300 99,300 100,300 101,300 102,300 103,300 104,300 105,300 106,300 107,300 108,300 109,300 110,300 111,299 112,299 113,299 114,299 115,299 116,299 117,298 118,298 119,298 120,298 121,298 122,297 123,297 124,297 125,297 126,296 127,296 128,296 129,295 130,295 131,295 132,294 133,294 134,293 135,293 136,293 137,292 138,292 139,291 140,291 141,290 142,290 143,289 144,289 145,288 146,287 147,287 148,286 149,286 150,285 151,284 152,284 153,283 154,282 155,281 156,281 157,280 158,279 159,278 160,277 160,276 159,275 159,274 158,273 157,272 156,271 155,270 154,269 154,268 153,267 152,266 152,265 151,264 150,263 150,262 149,261 149,260 148,259 147,258 147,257 146,256 146,255 145,254 145,253 144,252 144,251 144,250 143,249 143,248 142,247 142,246 142,245 141,245 140,246 140,247 139,248 138,249 137,250 136,251 135,252 134,253 133,254 132,254 131,255 130,256 129,257 128,257 127,258 126,259 125,259 124,260 123,260 122,261 121,261 120,262 119,262 118,263 117,263 116,263 115,264 114,264 113,264 112,265 111,265 110,265 109,265 108,266 107,266 106,266 105,266 104,266 103,266 102,266 101,267 100,267 99,267 98,267 97,267 96,267 95,267 94,267 93,267 92,266 91,266 90,266 89,266 88,266 87,266 86,266 85,265 84,265 83,265 82,265 81,264 80,264 79,264 78,263 77,263 76,263 75,262 74,262 73,261 72,261 71,260 70,260 69,259 68,258 67,258 66,257 65,256 64,256 63,255 62,254 61,253 60,252 59,252 58,251 57,250 57,249 56,248 55,247 54,246 53,245 52,244 52,243 51,242 50,241 50,240 49,239 49,238 48,237 48,236 47,235 47,234 46,233 46,232 46,231 45,230 45,229 45,228 45,227 44,226 44,225 44,224 44,223 44,222 44,221 43,220 43,219 43,218 43,217 43,216 43,215 44,214 44,213 44,212 44,211 44,210 44,209 44,208 45,207 45,206 45,205 45,204 46,203 46,202 46,201 47,200 47,199 48,198 48,197 49,196 49,195 50,194 50,193 51,192 51,191 52,190 53,189 54,188 54,187 55,186 56,185 57,184 58,183 59,182 60,181 61,180 62,179 63,179 64,178 65,177 66,176 67,176 68,175 69,175 70,174 71,174 72,173 73,172 74,172 75,172 76,171 77,171 78,170 79,170 80,170 81,169 82,169 83,169 84,169 85,168 86,168 87,168 88,168 89,168 90,168 91,167 92,167 93,168 92,169 91,170 90,171 89,172 88,173 87,174 86,175 85,176 84,177 83,178 82,179 81,180 80,181 80,182 79,183 79,184 79,185 79,186 78,187 78,188 78,189 78,190 79,191 79,192 79,193 79,194 80,195 80,196 81,197 82,198 83,199 84,200 85,201 86,201 87,202 88,202 89,202 90,203 91,203 92,203 93,203 94,203 95,203 96,203 97,203 98,203 99,203 100,202 101,202 102,201 103,201 104,200 105,200 106,199 107,198 108,197 109,196 110,195 111,194 112,193 113,192 114,191 115,190 116,190 117,189 118,188 119,187 120,186 121,185 122,184 123,183 124,182 125,181 126,180 127,179 128,178 129,178 130,177 131,176 132,175 133,174 134,173 135,172 136,171 137,170 138,169 139,168 140,167 141,166 142,165 143,165 144,164 145,163 146,162 147,161 148,160 149,159 149,158 150,157 150,156 151,155 151,154 151,153 152,152 152,151 152,150 152,149 152,148 151,147 151,146 151,145 151,144 150,143 149,142 149,141 148,140 147,139 146,138 145,137 144,136 143,135 142,134 141,134 140,133 139,132 138,131 137,130 136,129 135,128 134,127 133,126 132,125 131,124 130,123 129,122 128,122 127,121 126,120 125,119 124,118 123,117 122,116 121,115 120,114 119,113 118,112 117,111 116,110 115,109 114,109 113,108 112,107 111,106 110,105 109,104 108,103 107,102 106,101 105,100 104,100 103,99 102,99 101,98 100,98 99,97 98,97 97,97 96,97 95,97 94,97 93,97 92,97 91,97" stroke="#99b857" stroke-width="1" /><polygon fill="#bd4e4b" points="217,0 216,1 215,1 214,1 213,1 212,1 211,1 210,1 209,2 208,2 207,2 206,2 205,3 204,3 203,3 202,3 201,3 200,4 199,4 198,4 197,5 196,5 195,5 194,6 193,6 192,7 191,7 190,7 189,8 188,8 187,9 186,9 185,10 184,10 183,11 182,11 181,12 180,12 179,13 178,14 177,14 176,15 175,15 174,16 173,17 172,18 171,18 170,19 169,20 168,21 167,21 166,22 165,23 165,24 165,25 166,26 167,27 168,28 169,29 170,30 170,31 171,32 172,33 173,34 173,35 174,36 175,37 175,38 176,39 177,40 177,41 178,42 178,43 179,44 179,45 180,46 180,47 181,48 181,49 182,50 182,51 182,52 183,53 183,54 184,55 185,54 186,53 187,52 188,51 189,50 190,49 191,48 192,47 193,46 194,45 195,45 196,44 197,43 198,43 199,42 200,41 201,41 202,40 203,40 204,39 205,39 206,38 207,38 208,37 209,37 210,37 211,36 212,36 213,36 214,36 215,35 216,35 217,35 218,35 219,34 220,34 221,34 222,34 223,34 224,34 225,34 226,34 227,34 228,34 229,34 230,34 231,34 232,34 233,34 234,34 235,34 236,34 237,34 238,34 239,35 240,35 241,35 242,35 243,36 244,36 245,36 246,36 247,37 248,37 249,37 250,38 251,38 252,39 253,39 254,40 255,40 256,41 257,41 258,42 259,43 260,43 261,44 262,45 263,46 264,46 265,47 266,48 267,49 268,50 269,51 270,52 271,53 272,54 273,55 273,56 274,57 275,58 275,59 276,60 276,61 277,62 278,63 278,64 279,65 279,66 279,67 280,68 280,69 280,70 281,71 281,72 281,73 282,74 282,75 282,76 282,77 282,78 282,79 282,80 282,81 283,82 283,83 283,84 282,85 282,86 282,87 282,88 282,89 282,90 282,91 282,92 281,93 281,94 281,95 281,96 280,97 280,98 280,99 279,100 279,101 279,102 278,103 278,104 277,105 276,106 276,107 275,108 275,109 274,110 273,111 272,112 272,113 271,114 270,115 269,116 268,117 267,118 266,119 265,120 264,121 263,121 262,122 261,123 260,124 259,124 258,125 257,126 256,126 255,127 254,127 253,128 252,128 251,129 250,129 249,129 248,130 247,130 246,131 245,131 244,131 243,131 242,132 241,132 240,132 239,132 238,133 237,133 236,133 235,133 234,133 233,132 234,131 235,130 236,129 237,128 238,127 239,126 240,125 241,124 242,123 243,122 244,121 245,120 246,119 246,118 246,117 247,116 247,115 247,114 247,113 247,112 247,111 247,110 247,109 247,108 247,107 246,106 246,105 245,104 244,103 244,102 243,101 242,101 241,100 240,99 239,99 238,98 237,98 236,98 235,97 234,97 233,97 232,97 231,97 230,97 229,97 228,97 227,98 226,98 225,98 224,99 223,99 222,100 221,100 220,101 219,102 218,103 217,104 216,105 215,106 214,107 213,108 212,108 211,109 210,110 209,111 208,112 207,113 206,114 205,115 204,116 203,117 202,118 201,119 200,119 199,120 198,121 197,122 196,123 195,124 194,125 193,126 192,127 191,128 190,129 189,130 188,131 187,131 186,132 185,133 184,134 183,135 182,136 181,137 180,138 179,139 178,140 177,141 176,142 175,143 175,144 175,145 174,146 174,147 174,148 174,149 173,150 174,151 174,152 174,153 174,154 174,155 175,156 175,157 176,158 176,159 177,160 178,161 179,162 180,163 181,164 182,165 183,166 184,166 185,167 186,168 187,169 188,170 189,171 190,172 191,173 192,174 193,175 194,176 195,177 196,178 197,178 198,179 199,180 200,181 201,182 202,183 203,184 204,185 205,186 206,187 207,188 208,189 209,189 210,190 211,191 212,192 213,193 214,194 215,195 216,196 217,197 218,198 219,199 220,200 221,200 222,201 223,202 224,202 225,202 226,203 227,203 228,203 229,203 230,203 231,203 232,203 233,203 234,203 235,203 236,203 237,203 238,202 239,202 240,201 241,201 242,200 243,199 244,198 245,197 246,196 246,195 246,194 247,193 247,192 247,191 247,190 247,189 247,188 247,187 247,186 247,185 247,184 246,183 246,182 245,181 244,180 244,179 243,178 242,177 241,177 240,176 239,175 238,174 237,173 236,172 235,171 234,170 233,169 232,168 233,167 234,167 235,167 236,167 237,167 238,167 239,167 240,167 241,166 242,166 243,166 244,166 245,166 246,166 247,166 248,165 249,165 250,165 251,165 252,164 253,164 254,164 255,164 256,163 257,163 258,163 259,162 260,162 261,162 262,162 263,161 264,161 265,160 266,160 267,159 268,159 269,159 270,158 271,158 272,157 273,157 274,156 275,156 276,155 277,155 278,154 279,153 280,153 281,152 282,151 283,151 284,150 285,149 286,149 287,148 288,147 289,146 290,146 291,145 292,144 293,143 294,142 295,141 296,140 297,139 298,138 299,137 300,136 300,135 301,134 302,133 303,132 304,131 304,130 305,129 306,128 306,127 307,126 308,125 308,124 309,123 309,122 310,121 311,120 311,119 312,118 312,117 313,116 313,115 313,114 314,113 314,112 315,111 315,110 315,109 316,108 316,107 316,106 316,105 317,104 317,103 317,102 318,101 318,100 318,99 318,98 318,97 318,96 319,95 319,94 319,93 319,92 319,91 319,90 319,89 319,88 319,87 319,86 319,85 319,84 319,83 319,82 319,81 319,80 319,79 319,78 319,77 319,76 319,75 319,74 319,73 319,72 318,71 318,70 318,69 318,68 318,67 318,66 317,65 317,64 317,63 316,62 316,61 316,60 316,59 315,58 315,57 315,56 314,55 314,54 313,53 313,52 313,51 312,50 312,49 311,48 310,47 310,46 309,45 309,44 308,43 308,42 307,41 306,40 306,39 305,38 304,37 304,36 303,35 302,34 301,33 300,32 300,31 299,30 298,29 297,28 296,27 295,26 294,25 293,24 292,23 291,22 290,22 289,21 288,20 287,19 286,18 285,18 284,17 283,16 282,16 281,15 280,14 279,14 278,13 277,13 276,12 275,11 274,11 273,10 272,10 271,9 270,9 269,8 268,8 267,8 266,7 265,7 264,6 263,6 262,6 261,5 260,5 259,5 258,4 257,4 256,4 255,3 254,3 253,3 252,3 251,2 250,2 249,2 248,2 247,1 246,1 245,1 244,1 243,1 242,1 241,1 240,0 239,0 238,0 237,0 236,0 235,0 234,0 233,0 232,0 231,0 230,0 229,0 228,0 227,0 226,0 225,0 224,0 223,0 222,0 221,0 220,0 219,0 218,0" stroke="#bd4e4b" stroke-width="1" /><polygon fill="#3264fb" points="79,0 78,1 77,1 76,1 75,1 74,1 73,1 72,1 71,2 70,2 69,2 68,2 67,3 66,3 65,3 64,3 63,4 62,4 61,4 60,5 59,5 58,5 57,6 56,6 55,6 54,7 53,7 52,8 51,8 50,8 49,9 48,9 47,10 46,10 45,11 44,11 43,12 42,13 41,13 40,14 39,14 38,15 37,16 36,16 35,17 34,18 33,18 32,19 31,20 30,21 29,22 28,23 27,23 26,24 25,25 24,26 23,27 22,28 21,29 20,30 20,31 19,32 18,33 17,34 16,35 15,36 15,37 14,38 13,39 13,40 12,41 11,42 11,43 10,44 10,45 9,46 9,47 8,48 8,49 7,50 7,51 6,52 6,53 5,54 5,55 5,56 4,57 4,58 4,59 3,60 3,61 3,62 2,63 2,64 2,65 2,66 1,67 1,68 1,69 1,70 1,71 1,72 0,73 0,74 0,75 0,76 0,77 0,78 0,79 0,80 0,81 0,82 0,83 0,84 0,85 0,86 0,87 0,88 0,89 0,90 0,91 0,92 0,93 0,94 0,95 1,96 1,97 1,98 1,99 1,100 2,101 2,102 2,103 2,104 3,105 3,106 3,107 4,108 4,109 4,110 4,111 5,112 5,113 6,114 6,115 7,116 7,117 8,118 8,119 8,120 9,121 10,122 10,123 11,124 11,125 12,126 13,127 13,128 14,129 15,130 15,131 16,132 17,133 18,134 18,135 19,136 20,137 21,138 22,139 23,140 24,141 25,142 26,143 27,144 28,145 29,146 30,146 31,147 32,148 33,148 34,148 35,147 36,147 37,146 38,145 39,144 40,144 41,143 42,142 43,142 44,141 45,141 46,140 47,140 48,139 49,138 50,138 51,137 52,137 53,136 54,136 55,136 56,135 57,135 58,134 59,134 60,133 61,133 62,133 63,132 64,132 65,132 66,131 67,131 68,131 69,130 70,130 69,129 68,129 67,128 66,128 65,127 64,127 63,126 62,126 61,125 60,125 59,124 58,123 57,123 56,122 55,121 54,120 53,119 52,118 51,117 50,116 49,115 48,114 47,113 46,112 46,111 45,110 44,109 44,108 43,107 42,106 42,105 41,104 41,103 41,102 40,101 40,100 39,99 39,98 39,97 38,96 38,95 38,94 38,93 37,92 37,91 37,90 37,89 37,88 37,87 37,86 37,85 36,84 36,83 37,82 37,81 37,80 37,79 37,78 37,77 37,76 37,75 38,74 38,73 38,72 38,71 39,70 39,69 39,68 40,67 40,66 41,65 41,64 42,63 42,62 43,61 43,60 44,59 44,58 45,57 46,56 47,55 47,54 48,53 49,52 50,51 51,50 52,49 53,48 54,47 55,47 56,46 57,45 58,44 59,44 60,43 61,42 62,41 63,41 64,40 65,40 66,39 67,39 68,38 69,38 70,38 71,37 72,37 73,37 74,36 75,36 76,36 77,35 78,35 79,35 80,35 81,34 82,34 83,34 84,34 85,34 86,34 87,34 88,34 89,34 90,34 91,34 92,34 93,34 94,34 95,34 96,34 97,34 98,34 99,34 100,35 101,35 102,35 103,35 104,35 105,36 106,36 107,36 108,37 109,37 110,37 111,38 112,38 113,38 114,39 115,39 116,40 117,40 118,41 119,42 120,42 121,43 122,43 123,44 124,45 125,46 126,46 127,47 128,48 129,49 130,50 131,51 132,52 133,53 133,54 134,55 135,56 136,57 136,58 137,59 138,60 138,61 139,62 139,63 140,64 140,65 141,66 141,67 142,68 142,69 142,70 143,71 143,72 143,73 143,74 144,75 144,76 144,77 144,78 144,79 143,80 142,79 141,78 140,77 139,76 138,75 137,74 136,74 135,73 134,72 133,71 132,70 131,69 130,69 129,68 128,68 127,67 126,67 125,67 124,66 123,66 122,66 121,66 120,66 119,66 118,66 117,67 116,67 115,67 114,68 113,68 112,69 111,69 110,70 109,71 108,72 107,73 107,74 106,75 106,76 106,77 105,78 105,79 105,80 105,81 105,82 105,83 105,84 106,85 106,86 106,87 107,88 108,89 108,90 109,91 110,92 111,93 112,94 113,95 114,96 115,97 116,97 117,98 118,99 119,100 120,101 121,102 122,103 123,104 124,105 125,106 126,107 127,108 128,109 129,109 130,110 131,111 132,112 133,113 134,114 135,115 136,116 137,117 138,118 139,119 140,120 141,121 142,122 143,122 144,123 145,124 146,125 147,126 148,127 149,128 150,129 151,130 152,131 153,131 154,132 155,133 156,133 157,133 158,134 159,134 160,134 161,134 162,134 163,134 164,134 165,134 166,134 167,134 168,134 169,133 170,133 171,132 172,132 173,131 174,130 175,130 176,129 177,128 178,127 179,126 180,125 181,124 182,123 183,122 184,121 185,120 186,119 187,118 188,118 189,117 190,116 191,115 192,114 193,113 194,112 195,111 196,110 197,109 198,108 199,107 200,106 201,106 202,105 203,104 204,103 205,102 206,101 207,100 208,99 209,98 210,97 211,96 212,95 213,94 214,93 215,93 216,92 217,91 217,90 218,89 219,88 219,87 220,86 220,85 220,84 220,83 220,82 221,81 220,80 220,79 220,78 220,77 220,76 219,75 219,74 218,73 217,72 217,71 216,70 215,70 214,69 213,68 212,68 211,67 210,67 209,67 208,66 207,66 206,66 205,66 204,66 203,66 202,66 201,67 200,67 199,67 198,67 197,68 196,68 195,69 194,70 193,70 192,71 191,72 190,73 189,74 188,75 187,76 186,77 185,78 184,79 183,80 182,81 181,80 181,79 181,78 181,77 181,76 181,75 181,74 180,73 180,72 180,71 180,70 180,69 180,68 179,67 179,66 179,65 179,64 178,63 178,62 178,61 177,60 177,59 177,58 177,57 176,56 176,55 175,54 175,53 175,52 174,51 174,50 173,49 173,48 172,47 172,46 171,45 171,44 170,43 169,42 169,41 168,40 167,39 167,38 166,37 165,36 165,35 164,34 163,33 162,32 161,31 160,30 160,29 159,28 158,27 157,26 156,25 155,24 154,24 153,23 152,22 151,21 150,20 149,19 148,19 147,18 146,17 145,17 144,16 143,15 142,14 141,14 140,13 139,13 138,12 137,12 136,11 135,10 134,10 133,9 132,9 131,9 130,8 129,8 128,7 127,7 126,6 125,6 124,6 123,5 122,5 121,5 120,4 119,4 118,4 117,3 116,3 115,3 114,3 113,2 112,2 111,2 110,2 109,1 108,1 107,1 106,1 105,1 104,1 103,1 102,0 101,0 100,0 99,0 98,0 97,0 96,0 95,0 94,0 93,0 92,0 91,0 90,0 89,0 88,0 87,0 86,0 85,0 84,0 83,0 82,0 81,0 80,0" stroke="#3264fb" stroke-width="1" /></svg>